<svg width="204" height="142" viewBox="0 0 204 142" fill="none" xmlns="http://www.w3.org/2000/svg">
<path d="M100.932 15.0479C107.511 15.0479 112.844 22.2178 112.845 30.9126C112.845 31.9613 112.767 32.988 112.621 33.9834C109.414 31.1678 105.257 29.3274 100.788 29.3274C97.037 29.3275 94.0064 33.8016 92.1308 38.4794L91.7295 39.4805C90.76 41.8985 89.9877 44.5108 89.705 47.0238L77.4764 47.024C77.2638 47.024 77.1065 46.8159 77.1064 46.535C77.1065 29.1453 87.7735 15.0479 100.932 15.0479Z" fill="#49DE80"/>
<path d="M104.067 63.9526C97.4881 63.9526 92.1545 56.7826 92.1545 48.0876C92.1545 47.0392 92.2317 46.0127 92.3775 45.0176C95.5844 47.8331 99.7417 49.6737 104.211 49.6737C107.962 49.6736 110.993 45.1987 112.869 40.5204L113.27 39.5201C114.239 37.102 115.011 34.4895 115.294 31.9764L127.523 31.9764C127.735 31.9765 127.893 32.1845 127.893 32.4655C127.892 49.8554 117.226 63.9525 104.067 63.9526Z" fill="#8B5CF6"/>
<path d="M137.062 39.5005C137.062 20.4121 121.588 4.93799 102.5 4.93799C83.4117 4.93799 67.9375 20.4121 67.9375 39.5005C67.9375 58.5888 83.4117 74.063 102.5 74.063V79.0005C80.6848 79.0005 63 61.3157 63 39.5005C63 17.6852 80.6848 0.000488281 102.5 0.000488281C124.315 0.000488281 142 17.6852 142 39.5005C142 61.3157 124.315 79.0005 102.5 79.0005V74.063C121.588 74.063 137.062 58.5888 137.062 39.5005Z" fill="white"/>
<path d="M7.37563 117.424L5.93563 130H1.16763L4.49563 106.48L13.8716 120.944L23.2476 106.48L26.5756 130H21.8076L20.3676 117.424L13.8716 127.92L7.37563 117.424ZM33.7184 118.8C33.7184 120.229 34.017 121.499 34.6144 122.608C35.2117 123.717 36.033 124.592 37.0784 125.232C38.1237 125.872 39.3397 126.192 40.7264 126.192C42.113 126.192 43.329 125.872 44.3744 125.232C45.4197 124.592 46.2304 123.717 46.8064 122.608C47.4037 121.499 47.7024 120.229 47.7024 118.8C47.7024 117.371 47.4144 116.101 46.8384 114.992C46.2624 113.883 45.4517 113.008 44.4064 112.368C43.361 111.728 42.1344 111.408 40.7264 111.408C39.3397 111.408 38.1237 111.728 37.0784 112.368C36.033 113.008 35.2117 113.883 34.6144 114.992C34.017 116.101 33.7184 117.371 33.7184 118.8ZM28.8864 118.8C28.8864 117.093 29.185 115.536 29.7824 114.128C30.3797 112.699 31.2117 111.461 32.2784 110.416C33.345 109.371 34.593 108.571 36.0224 108.016C37.473 107.44 39.041 107.152 40.7264 107.152C42.433 107.152 44.001 107.44 45.4304 108.016C46.8597 108.571 48.1077 109.371 49.1744 110.416C50.2624 111.461 51.0944 112.699 51.6704 114.128C52.2677 115.536 52.5664 117.093 52.5664 118.8C52.5664 120.485 52.2677 122.053 51.6704 123.504C51.0944 124.933 50.273 126.181 49.2064 127.248C48.161 128.315 46.913 129.147 45.4624 129.744C44.033 130.32 42.4544 130.608 40.7264 130.608C38.9984 130.608 37.409 130.32 35.9584 129.744C34.529 129.147 33.281 128.315 32.2144 127.248C31.1477 126.181 30.3264 124.933 29.7504 123.504C29.1744 122.053 28.8864 120.485 28.8864 118.8ZM61.0319 117.424L59.5919 130H54.8239L58.1519 106.48L67.5279 120.944L76.9039 106.48L80.2319 130H75.4639L74.0239 117.424L67.5279 127.92L61.0319 117.424ZM86.7666 130V126.128H98.0626V130H86.7666ZM86.7666 111.472V107.6H98.0626V111.472H86.7666ZM86.7666 120.016V116.208H97.4226V120.016H86.7666ZM83.8226 107.6H88.2386V130H83.8226V107.6ZM118.509 107.6H122.925V131.12L106.989 116.112V130H102.573V106.48L118.509 121.488V107.6ZM125.551 111.728V107.6H142.191V111.728H136.143V130H131.567V111.728H125.551ZM144.631 107.6H149.207V122.352C149.207 123.632 149.538 124.667 150.199 125.456C150.882 126.224 151.885 126.608 153.207 126.608C154.53 126.608 155.522 126.224 156.183 125.456C156.866 124.667 157.207 123.632 157.207 122.352V107.6H161.783V122.64C161.783 123.963 161.57 125.125 161.143 126.128C160.717 127.131 160.109 127.973 159.319 128.656C158.551 129.339 157.645 129.851 156.599 130.192C155.554 130.555 154.423 130.736 153.207 130.736C151.97 130.736 150.829 130.555 149.783 130.192C148.738 129.851 147.831 129.339 147.063 128.656C146.295 127.973 145.698 127.131 145.271 126.128C144.845 125.125 144.631 123.963 144.631 122.64V107.6ZM171.536 119.568H176.368L183.664 130H178.256L171.536 119.568ZM166.448 107.6H171.024V130H166.448V107.6ZM169.232 111.504V107.6H173.968C175.738 107.6 177.242 107.899 178.48 108.496C179.717 109.093 180.666 109.925 181.328 110.992C181.989 112.059 182.32 113.307 182.32 114.736C182.32 116.144 181.989 117.392 181.328 118.48C180.666 119.547 179.717 120.379 178.48 120.976C177.242 121.573 175.738 121.872 173.968 121.872H169.232V118.224H173.68C174.49 118.224 175.184 118.096 175.76 117.84C176.357 117.563 176.816 117.179 177.136 116.688C177.456 116.176 177.616 115.568 177.616 114.864C177.616 114.16 177.456 113.563 177.136 113.072C176.816 112.56 176.357 112.176 175.76 111.92C175.184 111.643 174.49 111.504 173.68 111.504H169.232ZM198.739 107.6H203.955L196.243 120.72V130H191.603V120.752L183.891 107.6H189.107L193.907 116.624L198.739 107.6Z" fill="white"/>
</svg>
