<svg width="179" height="136" viewBox="0 0 179 136" fill="none" xmlns="http://www.w3.org/2000/svg">
<path d="M86.8723 15.0474C93.4514 15.0474 98.7849 22.2173 98.785 30.9121C98.785 31.9608 98.7075 32.9875 98.5617 33.9829C95.3548 31.1673 91.1975 29.3269 86.7285 29.3269C82.9774 29.327 79.9469 33.8011 78.0713 38.4789L77.6699 39.48C76.7004 41.898 75.9282 44.5103 75.6455 47.0233L63.4168 47.0236C63.2042 47.0235 63.0469 46.8154 63.0469 46.5345C63.0469 29.1448 73.714 15.0474 86.8723 15.0474Z" fill="white"/>
<path d="M90.0077 63.9521C83.4285 63.9521 78.095 56.7821 78.0949 48.0871C78.0949 47.0387 78.1721 46.0122 78.3179 45.0171C81.5249 47.8326 85.6821 49.6732 90.1512 49.6732C93.9026 49.6731 96.9333 45.1982 98.809 40.5199L99.2102 39.5196C100.18 37.1015 100.952 34.489 101.234 31.976L113.463 31.976C113.676 31.976 113.833 32.184 113.833 32.465C113.833 49.8549 103.166 63.952 90.0077 63.9521Z" fill="white"/>
<path d="M123.003 39.5C123.003 20.4117 107.529 4.9375 88.4404 4.9375C69.3521 4.9375 53.8779 20.4117 53.8779 39.5C53.8779 58.5883 69.3521 74.0625 88.4404 74.0625V79C66.6252 79 48.9404 61.3152 48.9404 39.5C48.9404 17.6848 66.6252 0 88.4404 0C110.256 0 127.94 17.6848 127.94 39.5C127.94 61.3152 110.256 79 88.4404 79V74.0625C107.529 74.0625 123.003 58.5883 123.003 39.5Z" fill="white"/>
<path d="M155.034 107.813V102.799H178.632L162.394 130.123H177.436V134.999H153.608L169.754 107.813H155.034Z" fill="white"/>
<path d="M131.396 102.799H136.824V134.999H131.396V102.799ZM134.616 107.583V102.799H141.102C143.433 102.799 145.457 103.213 147.174 104.041C148.922 104.839 150.272 105.989 151.222 107.491C152.173 108.963 152.648 110.727 152.648 112.781C152.648 114.836 152.173 116.615 151.222 118.117C150.272 119.62 148.922 120.785 147.174 121.613C145.457 122.411 143.433 122.809 141.102 122.809H134.616V118.025H141.102C142.973 118.025 144.476 117.581 145.61 116.691C146.745 115.802 147.312 114.499 147.312 112.781C147.312 111.064 146.745 109.776 145.61 108.917C144.476 108.028 142.973 107.583 141.102 107.583H134.616Z" fill="white"/>
<path d="M98.4258 118.9C98.4258 121.108 98.8858 123.086 99.8058 124.834C100.756 126.551 102.06 127.9 103.716 128.882C105.372 129.863 107.258 130.354 109.374 130.354C111.52 130.354 113.406 129.863 115.032 128.882C116.688 127.9 117.976 126.551 118.896 124.834C119.846 123.086 120.322 121.108 120.322 118.9C120.322 116.692 119.862 114.729 118.942 113.012C118.022 111.264 116.734 109.899 115.078 108.918C113.452 107.936 111.551 107.446 109.374 107.446C107.258 107.446 105.372 107.936 103.716 108.918C102.06 109.899 100.756 111.264 99.8058 113.012C98.8858 114.729 98.4258 116.692 98.4258 118.9ZM92.6758 118.9C92.6758 116.477 93.0898 114.254 93.9178 112.23C94.7458 110.206 95.9111 108.458 97.4138 106.986C98.9471 105.483 100.726 104.318 102.75 103.49C104.804 102.662 107.012 102.248 109.374 102.248C111.796 102.248 114.02 102.662 116.044 103.49C118.068 104.318 119.831 105.483 121.334 106.986C122.867 108.458 124.048 110.206 124.876 112.23C125.704 114.254 126.118 116.477 126.118 118.9C126.118 121.292 125.704 123.515 124.876 125.57C124.048 127.624 122.882 129.403 121.38 130.906C119.877 132.408 118.098 133.589 116.044 134.448C114.02 135.276 111.796 135.69 109.374 135.69C106.982 135.69 104.758 135.276 102.704 134.448C100.649 133.589 98.8704 132.408 97.3678 130.906C95.8958 129.403 94.7458 127.624 93.9178 125.57C93.0898 123.515 92.6758 121.292 92.6758 118.9Z" fill="white"/>
<path d="M61.5449 118.9C61.5449 121.108 62.0049 123.086 62.9249 124.834C63.8756 126.551 65.1789 127.9 66.8349 128.882C68.4909 129.863 70.3769 130.354 72.4929 130.354C74.6396 130.354 76.5256 129.863 78.1509 128.882C79.8069 127.9 81.0949 126.551 82.0149 124.834C82.9656 123.086 83.4409 121.108 83.4409 118.9C83.4409 116.692 82.9809 114.729 82.0609 113.012C81.1409 111.264 79.8529 109.899 78.1969 108.918C76.5716 107.936 74.6703 107.446 72.4929 107.446C70.3769 107.446 68.4909 107.936 66.8349 108.918C65.1789 109.899 63.8756 111.264 62.9249 113.012C62.0049 114.729 61.5449 116.692 61.5449 118.9ZM55.7949 118.9C55.7949 116.477 56.2089 114.254 57.0369 112.23C57.8649 110.206 59.0303 108.458 60.5329 106.986C62.0663 105.483 63.8449 104.318 65.8689 103.49C67.9236 102.662 70.1316 102.248 72.4929 102.248C74.9156 102.248 77.1389 102.662 79.1629 103.49C81.1869 104.318 82.9503 105.483 84.4529 106.986C85.9863 108.458 87.1669 110.206 87.9949 112.23C88.8229 114.254 89.2369 116.477 89.2369 118.9C89.2369 121.292 88.8229 123.515 87.9949 125.57C87.1669 127.624 86.0016 129.403 84.4989 130.906C82.9963 132.408 81.2176 133.589 79.1629 134.448C77.1389 135.276 74.9156 135.69 72.4929 135.69C70.1009 135.69 67.8776 135.276 65.8229 134.448C63.7683 133.589 61.9896 132.408 60.4869 130.906C59.0149 129.403 57.8649 127.624 57.0369 125.57C56.2089 123.515 55.7949 121.292 55.7949 118.9Z" fill="white"/>
<path d="M24.6641 118.9C24.6641 121.108 25.1241 123.086 26.0441 124.834C26.9947 126.551 28.2981 127.9 29.9541 128.882C31.6101 129.863 33.4961 130.354 35.6121 130.354C37.7587 130.354 39.6447 129.863 41.2701 128.882C42.9261 127.9 44.2141 126.551 45.1341 124.834C46.0847 123.086 46.5601 121.108 46.5601 118.9C46.5601 116.692 46.1001 114.729 45.1801 113.012C44.2601 111.264 42.9721 109.899 41.3161 108.918C39.6907 107.936 37.7894 107.446 35.6121 107.446C33.4961 107.446 31.6101 107.936 29.9541 108.918C28.2981 109.899 26.9947 111.264 26.0441 113.012C25.1241 114.729 24.6641 116.692 24.6641 118.9ZM18.9141 118.9C18.9141 116.477 19.3281 114.254 20.1561 112.23C20.9841 110.206 22.1494 108.458 23.6521 106.986C25.1854 105.483 26.9641 104.318 28.9881 103.49C31.0427 102.662 33.2507 102.248 35.6121 102.248C38.0347 102.248 40.2581 102.662 42.2821 103.49C44.3061 104.318 46.0694 105.483 47.5721 106.986C49.1054 108.458 50.2861 110.206 51.1141 112.23C51.9421 114.254 52.3561 116.477 52.3561 118.9C52.3561 121.292 51.9421 123.515 51.1141 125.57C50.2861 127.624 49.1207 129.403 47.6181 130.906C46.1154 132.408 44.3367 133.589 42.2821 134.448C40.2581 135.276 38.0347 135.69 35.6121 135.69C33.2201 135.69 30.9967 135.276 28.9421 134.448C26.8874 133.589 25.1087 132.408 23.6061 130.906C22.1341 129.403 20.9841 127.624 20.1561 125.57C19.3281 123.515 18.9141 121.292 18.9141 118.9Z" fill="white"/>
<path d="M0 102.799H5.428V130.123H18.216V134.999H0V102.799Z" fill="white"/>
</svg>
