<svg width="79" height="79" viewBox="0 0 79 79" fill="none" xmlns="http://www.w3.org/2000/svg">
<path d="M37.9318 15.0479C44.511 15.0479 49.8445 22.2178 49.8445 30.9126C49.8445 31.9613 49.7671 32.988 49.6213 33.9834C46.4143 31.1678 42.2571 29.3274 37.7881 29.3274C34.037 29.3275 31.0064 33.8016 29.1308 38.4794L28.7295 39.4805C27.76 41.8985 26.9877 44.5108 26.705 47.0238L14.4764 47.024C14.2638 47.024 14.1065 46.8159 14.1064 46.535C14.1065 29.1453 24.7735 15.0479 37.9318 15.0479Z" fill="white"/>
<path d="M41.0673 63.9526C34.4881 63.9526 29.1545 56.7826 29.1545 48.0876C29.1545 47.0392 29.2317 46.0127 29.3775 45.0176C32.5844 47.8331 36.7417 49.6737 41.2107 49.6737C44.9622 49.6736 47.9929 45.1987 49.8686 40.5204L50.2697 39.5201C51.2392 37.102 52.0112 34.4895 52.2939 31.9764L64.5229 31.9764C64.7355 31.9765 64.8927 32.1845 64.8926 32.4655C64.8924 49.8554 54.2256 63.9525 41.0673 63.9526Z" fill="white"/>
<path d="M74.0625 39.5005C74.0625 20.4121 58.5883 4.93799 39.5 4.93799C20.4117 4.93799 4.9375 20.4121 4.9375 39.5005C4.9375 58.5888 20.4117 74.063 39.5 74.063V79.0005C17.6848 79.0005 0 61.3157 0 39.5005C0 17.6852 17.6848 0.000488281 39.5 0.000488281C61.3152 0.000488281 79 17.6852 79 39.5005C79 61.3157 61.3152 79.0005 39.5 79.0005V74.063C58.5883 74.063 74.0625 58.5888 74.0625 39.5005Z" fill="white"/>
</svg>
